<svg width="186" height="214" viewBox="0 0 186 214" fill="none" xmlns="http://www.w3.org/2000/svg">
<path d="M97.0385 74.5321C93.4959 75.7519 89.3665 73.7518 87.9781 69.7196C86.5897 65.6875 88.6124 61.5691 92.155 60.3493C95.6976 59.1295 99.827 61.1295 101.215 65.1617C102.604 69.1939 100.581 73.3122 97.0385 74.5321Z" stroke="#01D47E" stroke-width="5"/>
<path d="M116.573 131.264C113.03 132.484 108.901 130.484 107.512 126.452C106.124 122.42 108.146 118.302 111.689 117.082C115.232 115.862 119.361 117.862 120.749 121.894C122.138 125.926 120.115 130.045 116.573 131.264Z" stroke="#01D47E" stroke-width="5"/>
<path d="M30.4756 122.433C27.5152 114.185 28.7924 101.752 33.3789 87.8185C37.9253 74.007 45.5664 59.1993 54.7007 46.4805C63.8615 33.7248 74.3671 23.2889 84.5434 17.9716C89.6114 15.3235 94.4787 14.0065 98.9939 14.1893C103.459 14.3701 107.751 16.022 111.743 19.6175C146.323 50.7575 165.113 107.961 171.137 159.11C171.827 164.965 170.441 169.004 167.813 171.814C165.108 174.707 160.762 176.648 154.886 177.555C143.103 179.376 126.379 176.855 108.743 171.503C91.1784 166.173 73.0288 158.132 58.503 149.211C51.2404 144.75 44.9358 140.101 40.0756 135.5C35.1852 130.871 31.9124 126.436 30.4756 122.433Z" stroke="#01D47E" stroke-width="5"/>
<circle cx="48.5" cy="90.5" r="2.5" fill="#01D47E"/>
<path d="M103 29.1738C103 29.1738 74.9999 26.002 50.4999 85.0002" stroke="#01D47E" stroke-width="3"/>
</svg>
