<svg width="230" height="239" viewBox="0 0 230 239" fill="none" xmlns="http://www.w3.org/2000/svg">
<path d="M114.423 154.908C120.332 164.18 129.6 175.038 143.036 187.869C146.563 193.819 147.656 197.884 147.423 200.461C147.312 201.692 146.902 202.558 146.31 203.21C145.697 203.885 144.75 204.479 143.346 204.904C140.471 205.774 136.171 205.786 130.683 204.845C125.258 203.914 118.927 202.099 112.136 199.564C98.555 194.493 83.3556 186.625 70.24 177.533C57.0625 168.399 46.2717 158.223 41.1735 148.635C20.281 109.342 34.6482 60.9325 73.1339 40.4693C111.62 20.0061 159.787 35.1653 180.679 74.4583C181.886 76.7284 182.335 78.57 182.322 80.0725C182.31 81.5418 181.856 82.85 180.973 84.0939C179.11 86.7158 175.353 89.0329 169.929 91.2348C164.738 93.3423 158.468 95.1772 151.79 97.1315C151.593 97.1892 151.396 97.2469 151.199 97.3047C144.36 99.3066 137.155 101.435 130.61 104.072C117.742 109.256 106.118 116.934 105.921 130.895C105.825 137.698 108.488 145.595 114.423 154.908Z" stroke="#01D47E" stroke-width="5"/>
<path d="M78.9399 147.242C75.6318 149.001 71.2403 147.671 69.2383 143.906C67.2362 140.14 68.5897 135.756 71.8979 133.997C75.206 132.238 79.5975 133.568 81.5995 137.333C83.6016 141.099 82.2481 145.483 78.9399 147.242Z" stroke="#01D47E" stroke-width="5"/>
<path d="M120.973 75.06C117.664 76.819 113.273 75.4895 111.271 71.7242C109.269 67.9588 110.622 63.5748 113.93 61.8158C117.239 60.0568 121.63 61.3862 123.632 65.1516C125.634 68.9169 124.281 73.301 120.973 75.06Z" stroke="#01D47E" stroke-width="5"/>
</svg>
