<svg width="224" height="209" viewBox="0 0 224 209" fill="none" xmlns="http://www.w3.org/2000/svg">
<path d="M79.1279 107.748C81.1133 110.925 80.0935 115.399 76.477 117.658C72.8604 119.918 68.3926 118.874 66.4072 115.697C64.4217 112.519 65.4416 108.046 69.0581 105.786C72.6746 103.526 77.1424 104.57 79.1279 107.748Z" stroke="#01D47E" stroke-width="5"/>
<path d="M130.011 75.9528C131.996 79.1302 130.976 83.6037 127.36 85.8635C123.743 88.1234 119.276 87.079 117.29 83.9016C115.305 80.7242 116.325 76.2507 119.941 73.9908C123.558 71.731 128.025 72.7754 130.011 75.9528Z" stroke="#01D47E" stroke-width="5"/>
<path d="M140.774 161.829C133.404 166.569 121.002 168.121 106.394 166.786C91.914 165.463 75.7669 161.349 61.3194 155.31C46.8299 149.254 34.2982 141.365 26.828 132.645C23.1077 128.303 20.7296 123.857 19.8921 119.416C19.0637 115.024 19.7079 110.471 22.3131 105.772C44.8763 65.0741 96.3871 33.8981 144.87 16.5216C150.419 14.5326 154.667 14.9749 157.996 16.9033C161.423 18.8885 164.292 22.6862 166.498 28.2075C170.922 39.2786 172.228 56.1409 170.981 74.5285C169.738 92.8425 165.987 112.336 160.561 128.496C157.848 136.576 154.737 143.765 151.347 149.535C147.937 155.342 144.352 159.528 140.774 161.829Z" stroke="#01D47E" stroke-width="5"/>
<path d="M116 47.5C116 47.5 69.3804 60.2966 45.5 97.5" stroke="#01D47E" stroke-width="3"/>
<circle cx="42.5" cy="105.5" r="2.5" fill="#01D47E"/>
</svg>
